# Blender 4.5.4 LTS
# www.blender.org
mtllib book.mtl
o BézierCurve
v 0.000000 0.008007 0.000000
v 0.067520 0.134308 0.000000
v 0.156322 0.221996 0.000000
v 0.266014 0.269725 0.000000
v 0.395430 0.284155 0.000000
v 0.543403 0.271945 0.000000
v 0.708765 0.239756 0.000000
v 0.890351 0.194246 0.000000
v 1.086992 0.142077 0.000000
v 1.297523 0.089908 0.000000
v 1.520775 0.044399 0.000000
v 1.755582 0.012210 0.000000
v 2.000777 0.000000 0.000000
v 0.000000 0.008007 -2.000000
v 0.067520 0.134308 -2.000000
v 0.156322 0.221996 -2.000000
v 0.266014 0.269725 -2.000000
v 0.395430 0.284155 -2.000000
v 0.543403 0.271945 -2.000000
v 0.708765 0.239756 -2.000000
v 0.890351 0.194246 -2.000000
v 1.086992 0.142077 -2.000000
v 1.297523 0.089908 -2.000000
v 1.520775 0.044399 -2.000000
v 1.755582 0.012210 -2.000000
v 2.000777 0.000000 -2.000000
v 0.000000 -0.136568 -0.000000
v 0.064441 -0.136747 -0.000000
v 0.160466 -0.154381 -0.000000
v 0.279082 -0.191261 -0.000000
v 0.419026 -0.191012 -0.000000
v 0.579036 -0.191223 -0.000000
v 0.757851 -0.191778 -0.000000
v 0.954209 -0.192563 -0.000000
v 1.166847 -0.193462 -0.000000
v 1.394504 -0.194362 -0.000000
v 1.635918 -0.195146 -0.000000
v 1.889827 -0.195701 -0.000000
v 2.154968 -0.195912 -0.000000
v 0.000000 -0.136568 -2.000000
v 0.064441 -0.136747 -2.000000
v 0.160466 -0.154381 -2.000000
v 0.279082 -0.191261 -2.000000
v 0.419026 -0.191012 -2.000000
v 0.579036 -0.191223 -2.000000
v 0.757851 -0.191778 -2.000000
v 0.954209 -0.192563 -2.000000
v 1.166847 -0.193462 -2.000000
v 1.394504 -0.194362 -2.000000
v 1.635918 -0.195146 -2.000000
v 1.889827 -0.195701 -2.000000
v 2.154968 -0.195912 -2.000000
v -0.067520 0.134308 0.000000
v -0.156322 0.221996 0.000000
v -0.266014 0.269725 0.000000
v -0.395430 0.284155 0.000000
v -0.543403 0.271945 0.000000
v -0.708765 0.239756 0.000000
v -0.890351 0.194246 0.000000
v -1.086992 0.142077 0.000000
v -1.297523 0.089908 0.000000
v -1.520775 0.044399 0.000000
v -1.755582 0.012210 0.000000
v -2.000777 0.000000 0.000000
v -0.067520 0.134308 -2.000000
v -0.156322 0.221996 -2.000000
v -0.266014 0.269725 -2.000000
v -0.395430 0.284155 -2.000000
v -0.543403 0.271945 -2.000000
v -0.708765 0.239756 -2.000000
v -0.890351 0.194246 -2.000000
v -1.086992 0.142077 -2.000000
v -1.297523 0.089908 -2.000000
v -1.520775 0.044399 -2.000000
v -1.755582 0.012210 -2.000000
v -2.000777 0.000000 -2.000000
v -0.064441 -0.136747 -0.000000
v -0.160466 -0.154381 -0.000000
v -0.279082 -0.191261 -0.000000
v -0.419026 -0.191012 -0.000000
v -0.579036 -0.191223 -0.000000
v -0.757851 -0.191778 -0.000000
v -0.954209 -0.192563 -0.000000
v -1.166847 -0.193462 -0.000000
v -1.394504 -0.194362 -0.000000
v -1.635918 -0.195146 -0.000000
v -1.889827 -0.195701 -0.000000
v -2.154968 -0.195912 -0.000000
v -0.064441 -0.136747 -2.000000
v -0.160466 -0.154381 -2.000000
v -0.279082 -0.191261 -2.000000
v -0.419026 -0.191012 -2.000000
v -0.579036 -0.191223 -2.000000
v -0.757851 -0.191778 -2.000000
v -0.954209 -0.192563 -2.000000
v -1.166847 -0.193462 -2.000000
v -1.394504 -0.194362 -2.000000
v -1.635918 -0.195146 -2.000000
v -1.889827 -0.195701 -2.000000
v -2.154968 -0.195912 -2.000000
v -2.248439 -0.205804 0.009459
v -2.248439 -0.151818 0.009459
v -2.248439 -0.205803 -1.990541
v -2.248439 -0.151818 -1.990541
v 2.248439 -0.205804 0.009459
v 2.248439 -0.151818 0.009459
v 2.248439 -0.205803 -1.990541
v 2.248439 -0.151818 -1.990541
v 0.000000 -0.315536 -1.990541
v 0.000000 -0.265711 -1.990541
v 0.000000 -0.275004 0.009459
v 0.000000 -0.223748 0.009459
v -0.217378 -0.246174 -1.990541
v -0.217378 -0.193781 0.009459
v -0.217378 -0.193781 -1.990541
v -0.217378 -0.246174 0.009459
v 0.206400 -0.193781 -1.990541
v 0.206400 -0.246174 0.009459
v 0.206400 -0.246174 -1.990541
v 0.206400 -0.193781 0.009459
v 0.070264 -0.310660 -1.990541
v 0.070264 -0.248591 0.009459
v 0.070264 -0.261022 -1.990541
v 0.070264 -0.294252 0.009459
v 0.138332 -0.245206 -1.990541
v 0.138332 -0.282663 0.009459
v 0.138332 -0.293941 -1.990541
v 0.138332 -0.240609 0.009459
v -0.149991 -0.240688 -1.990541
v -0.217378 -0.246174 0.009459
v -0.149991 -0.289038 -1.990541
v -0.217378 -0.193781 0.009459
v -0.074996 -0.260343 -1.990541
v -0.074996 -0.292328 0.009459
v -0.074996 -0.309952 -1.990541
v -0.074996 -0.246668 0.009459
vn -0.3990 0.9170 -0.0000
vn 0.1997 0.9798 -0.0000
vn 0.2431 0.9700 -0.0000
vn -0.1108 0.9938 -0.0000
vn 0.1358 0.9907 -0.0000
vn -0.8819 0.4715 -0.0000
vn 0.2564 0.9666 -0.0000
vn 0.0822 0.9966 -0.0000
vn 0.0497 0.9988 -0.0000
vn -0.7026 0.7116 -0.0000
vn 0.2405 0.9706 -0.0000
vn 0.1911 0.9816 -0.0000
vn -0.2969 -0.9549 -0.0000
vn -0.0033 -1.0000 -0.0000
vn -0.0040 -1.0000 -0.0000
vn 0.0018 -1.0000 -0.0000
vn -0.0022 -1.0000 -0.0000
vn -0.0028 -1.0000 -0.0000
vn -0.0042 -1.0000 -0.0000
vn -0.0013 -1.0000 -0.0000
vn -0.0008 -1.0000 -0.0000
vn -0.1806 -0.9836 -0.0000
vn -0.0031 -1.0000 -0.0000
vn -0.0000 -0.0000 -1.0000
vn -0.0000 -0.0000 1.0000
vn 0.7858 0.6185 -0.0000
vn 0.3990 0.9170 -0.0000
vn -0.1997 0.9798 -0.0000
vn -0.2431 0.9700 -0.0000
vn 0.1108 0.9938 -0.0000
vn -0.1358 0.9907 -0.0000
vn 0.8819 0.4715 -0.0000
vn -0.2564 0.9666 -0.0000
vn -0.0822 0.9966 -0.0000
vn -0.0497 0.9988 -0.0000
vn 0.7026 0.7116 -0.0000
vn -0.2405 0.9706 -0.0000
vn -0.1911 0.9816 -0.0000
vn 0.2969 -0.9549 -0.0000
vn 0.0033 -1.0000 -0.0000
vn 0.0040 -1.0000 -0.0000
vn -0.0018 -1.0000 -0.0000
vn 0.0022 -1.0000 -0.0000
vn 0.0028 -1.0000 -0.0000
vn 0.0042 -1.0000 -0.0000
vn 0.0013 -1.0000 -0.0000
vn 0.0008 -1.0000 -0.0000
vn 0.1806 -0.9836 -0.0000
vn 0.0031 -1.0000 -0.0000
vn -0.7858 0.6185 -0.0000
vn -1.0000 -0.0000 -0.0000
vn 1.0000 -0.0000 -0.0000
vn 0.0198 -0.9998 -0.0000
vn 0.0207 0.9998 -0.0000
vn 0.1419 0.9898 -0.0135
vn 0.0780 -0.9968 0.0145
vn -0.0199 -0.9998 -0.0000
vn 0.5713 0.8207 -0.0000
vn -0.0205 0.9998 -0.0000
vn 0.5263 -0.8503 0.0024
vn -0.1017 -0.9947 0.0142
vn -0.1722 0.9851 -0.0042
vn -0.5852 0.8109 -0.0009
vn 0.2036 -0.9790 0.0068
vn 0.3165 0.9485 -0.0090
vn -0.5367 -0.8438 -0.0000
vn -0.1162 0.9931 -0.0138
vn -0.2948 -0.9555 0.0095
vt 0.277108 0.675248
vt 0.260671 0.675236
vt 0.260671 0.975549
vt 0.277108 0.975561
vt 0.105660 0.675281
vt 0.072106 0.675293
vt 0.072106 0.975606
vt 0.105660 0.975594
vt 0.194169 0.675243
vt 0.166871 0.675255
vt 0.166871 0.975568
vt 0.194169 0.975556
vt 0.241248 0.675232
vt 0.241248 0.975545
vt 0.036826 0.675301
vt 0.036826 0.975614
vt 0.875458 0.675232
vt 0.855002 0.675232
vt 0.855002 0.975545
vt 0.875458 0.975545
vt 0.137308 0.675268
vt 0.137308 0.975581
vt 0.219021 0.675235
vt 0.219021 0.975548
vt 0.000000 0.675304
vt 0.000000 0.975617
vt 0.839656 0.675232
vt 0.839656 0.975545
vt 0.900999 0.025271
vt 0.600686 0.025271
vt 0.600678 0.043113
vt 0.900991 0.043113
vt 0.900992 0.210601
vt 0.600679 0.210601
vt 0.600679 0.246851
vt 0.900992 0.246851
vt 0.900992 0.115003
vt 0.600679 0.115003
vt 0.600679 0.144488
vt 0.900992 0.144488
vt 0.600679 0.064126
vt 0.900992 0.064126
vt 0.600679 0.284977
vt 0.900993 0.284977
vt 0.901002 -0.000000
vt 0.600689 0.000000
vt 0.600689 0.010837
vt 0.901002 0.010837
vt 0.600679 0.176417
vt 0.900992 0.176417
vt 0.600679 0.088153
vt 0.900992 0.088153
vt 0.600680 0.324790
vt 0.900993 0.324790
vt 0.727969 0.735291
vt 0.696808 0.715044
vt 0.696782 0.753171
vt 0.732702 0.770563
vt 0.595544 0.998784
vt 0.617256 1.000000
vt 0.617252 0.989163
vt 0.576550 0.988817
vt 0.768219 0.939644
vt 0.696880 0.935896
vt 0.696782 0.956910
vt 0.765997 0.959070
vt 0.574945 0.835740
vt 0.625294 0.823605
vt 0.625332 0.789421
vt 0.582688 0.804105
vt 0.726241 0.698469
vt 0.696890 0.675232
vt 0.619859 0.974736
vt 0.563345 0.975520
vt 0.766449 0.917419
vt 0.696917 0.911870
vt 0.625346 0.753171
vt 0.589426 0.770563
vt 0.625346 0.956910
vt 0.556131 0.959070
vt 0.761687 0.892575
vt 0.696910 0.885019
vt 0.625320 0.715044
vt 0.594158 0.735291
vt 0.625248 0.935896
vt 0.553909 0.939644
vt 0.754931 0.865290
vt 0.696877 0.855534
vt 0.625237 0.675232
vt 0.595886 0.698469
vt 0.625211 0.911870
vt 0.555679 0.917419
vt 0.747182 0.835740
vt 0.696833 0.823605
vt 0.745577 0.988817
vt 0.704876 0.989163
vt 0.704871 1.000000
vt 0.726584 0.998784
vt 0.625217 0.885019
vt 0.560441 0.892575
vt 0.739439 0.804105
vt 0.696796 0.789421
vt 0.758783 0.975520
vt 0.702269 0.974736
vt 0.625251 0.855534
vt 0.567196 0.865290
vt 0.991487 0.300314
vt 0.958391 0.300314
vt 0.958391 0.600627
vt 0.991487 0.600627
vt 0.277108 0.675248
vt 0.277108 0.975561
vt 0.293612 0.975548
vt 0.293612 0.675235
vt 0.448374 0.675284
vt 0.448374 0.975597
vt 0.481865 0.975609
vt 0.481865 0.675296
vt 0.360073 0.675244
vt 0.360073 0.975557
vt 0.387307 0.975569
vt 0.387307 0.675256
vt 0.313055 0.975545
vt 0.313055 0.675232
vt 0.517100 0.975618
vt 0.517100 0.675304
vt 0.922588 -0.000000
vt 0.922588 0.300314
vt 0.943044 0.300314
vt 0.943044 -0.000000
vt 0.416798 0.975583
vt 0.416798 0.675270
vt 0.335265 0.975548
vt 0.335265 0.675235
vt 0.553909 0.975621
vt 0.553909 0.675308
vt 0.958391 0.300314
vt 0.958391 -0.000000
vt 0.600682 0.350030
vt 0.600689 0.367809
vt 0.901003 0.367813
vt 0.900995 0.350034
vt 0.600689 0.535292
vt 0.600689 0.571541
vt 0.901003 0.571544
vt 0.901003 0.535296
vt 0.600689 0.439698
vt 0.600689 0.469181
vt 0.901002 0.469185
vt 0.901002 0.439702
vt 0.600689 0.388823
vt 0.901002 0.388826
vt 0.600689 0.609666
vt 0.901003 0.609669
vt 0.600678 0.324790
vt 0.600678 0.335627
vt 0.900991 0.335630
vt 0.900992 0.324793
vt 0.600689 0.501109
vt 0.901002 0.501113
vt 0.600689 0.412849
vt 0.901002 0.412852
vt 0.600689 0.649478
vt 0.901002 0.649481
vt 0.808468 0.735292
vt 0.803736 0.770563
vt 0.839656 0.753171
vt 0.839630 0.715044
vt 0.655147 0.998784
vt 0.674141 0.988817
vt 0.633439 0.989163
vt 0.633435 1.000000
vt 0.768219 0.939644
vt 0.770441 0.959070
vt 0.839656 0.956910
vt 0.839558 0.935896
vt 0.675746 0.835740
vt 0.668003 0.804105
vt 0.625360 0.789421
vt 0.625397 0.823605
vt 0.810196 0.698469
vt 0.839547 0.675232
vt 0.687346 0.975520
vt 0.630832 0.974736
vt 0.769989 0.917419
vt 0.839521 0.911870
vt 0.661265 0.770563
vt 0.625345 0.753171
vt 0.694560 0.959070
vt 0.625345 0.956910
vt 0.774751 0.892575
vt 0.839527 0.885019
vt 0.656533 0.735291
vt 0.625371 0.715044
vt 0.696782 0.939644
vt 0.625443 0.935896
vt 0.781506 0.865290
vt 0.839561 0.855535
vt 0.654805 0.698469
vt 0.625454 0.675232
vt 0.695012 0.917419
vt 0.625480 0.911870
vt 0.789255 0.835740
vt 0.839604 0.823605
vt 0.790860 0.988817
vt 0.809854 0.998784
vt 0.831566 1.000000
vt 0.831562 0.989163
vt 0.690250 0.892575
vt 0.625474 0.885019
vt 0.796998 0.804105
vt 0.839642 0.789421
vt 0.777655 0.975520
vt 0.834169 0.974736
vt 0.683495 0.865290
vt 0.625440 0.855535
vt 0.958391 0.000000
vt 0.991487 0.300314
vt 0.991487 0.000000
vt 0.991487 0.305199
vt 0.999461 0.305199
vt 0.999461 0.605512
vt 0.991487 0.605512
vt 0.915171 0.606939
vt 0.907303 0.606939
vt 0.901002 0.300314
vt 0.909109 0.300314
vt 0.999461 0.905826
vt 0.991487 0.905826
vt 0.991487 0.605512
vt 0.991487 -0.000000
vt 0.999352 0.000156
vt 0.999591 0.305199
vt 0.991487 0.305038
vt 0.000018 0.306597
vt 0.000029 0.000002
vt 0.300342 -0.000000
vt 0.300331 0.306595
vt 0.600664 0.370219
vt 0.600655 0.675228
vt 0.300342 0.675226
vt 0.300350 0.370217
vt 0.600677 0.326971
vt 0.600678 0.337517
vt 0.300356 0.337551
vt 0.300362 0.326979
vt 0.000001 0.348806
vt 0.000000 0.337541
vt 0.300324 0.337567
vt 0.300319 0.348816
vt 0.974210 0.643689
vt 0.967355 0.643806
vt 0.963445 0.633320
vt 0.971141 0.633189
vt 0.924747 0.649193
vt 0.917298 0.649193
vt 0.918104 0.637932
vt 0.925586 0.637932
vt 0.909109 0.975550
vt 0.901002 0.975550
vt 0.907303 0.670573
vt 0.915171 0.670573
vt 0.000029 0.675232
vt 0.000018 0.370230
vt 0.300331 0.370227
vt 0.300342 0.675229
vt 0.600673 0.360061
vt 0.966496 0.970936
vt 0.958391 0.971074
vt 0.959474 0.664385
vt 0.967340 0.664251
vt 0.600655 0.000002
vt 0.600664 0.306587
vt 0.300350 0.306585
vt 0.300342 0.000000
vt 0.000006 0.316785
vt 0.300322 0.316790
vt 0.922343 0.617160
vt 0.915025 0.617160
vt 0.917400 0.627381
vt 0.924854 0.627381
vt 0.000001 0.326994
vt 0.300319 0.327003
vt 0.972644 0.653938
vt 0.966330 0.654046
vt 0.600674 0.316764
vt 0.300360 0.316766
vt 0.973550 0.621886
vt 0.966695 0.622002
vt 0.958391 0.600761
vt 0.966257 0.600627
vt 0.600677 0.348783
vt 0.300361 0.348792
vt 0.914347 0.660454
vt 0.921607 0.660454
vt 0.000007 0.360081
s 0
f 3/1/1 4/2/1 17/3/1 16/4/1
f 10/5/2 11/6/2 24/7/2 23/8/2
f 7/9/3 8/10/3 21/11/3 20/12/3
f 4/2/4 5/13/4 18/14/4 17/3/4
f 11/6/5 12/15/5 25/16/5 24/7/5
f 1/17/6 2/18/6 15/19/6 14/20/6
f 8/10/7 9/21/7 22/22/7 21/11/7
f 5/13/8 6/23/8 19/24/8 18/14/8
f 12/15/9 13/25/9 26/26/9 25/16/9
f 2/18/10 3/27/10 16/28/10 15/19/10
f 9/21/11 10/5/11 23/8/11 22/22/11
f 6/23/12 7/9/12 20/12/12 19/24/12
f 29/29/13 42/30/13 43/31/13 30/32/13
f 36/33/14 49/34/14 50/35/14 37/36/14
f 33/37/15 46/38/15 47/39/15 34/40/15
f 30/32/16 43/31/16 44/41/16 31/42/16
f 37/36/17 50/35/17 51/43/17 38/44/17
f 27/45/18 40/46/18 41/47/18 28/48/18
f 34/40/19 47/39/19 48/49/19 35/50/19
f 31/42/20 44/41/20 45/51/20 32/52/20
f 38/44/21 51/43/21 52/53/21 39/54/21
f 28/48/22 41/47/22 42/30/22 29/29/22
f 35/50/15 48/49/15 49/34/15 36/33/15
f 32/52/23 45/51/23 46/38/23 33/37/23
f 25/55/24 51/56/24 50/57/24 24/58/24
f 1/59/25 27/60/25 28/61/25 2/62/25
f 18/63/24 44/64/24 43/65/24 17/66/24
f 9/67/25 35/68/25 36/69/25 10/70/25
f 26/71/24 52/72/24 51/56/24 25/55/24
f 2/62/25 28/61/25 29/73/25 3/74/25
f 19/75/24 45/76/24 44/64/24 18/63/24
f 10/70/25 36/69/25 37/77/25 11/78/25
f 3/74/25 29/73/25 30/79/25 4/80/25
f 20/81/24 46/82/24 45/76/24 19/75/24
f 11/78/25 37/77/25 38/83/25 12/84/25
f 4/80/25 30/79/25 31/85/25 5/86/25
f 21/87/24 47/88/24 46/82/24 20/81/24
f 12/84/25 38/83/25 39/89/25 13/90/25
f 5/86/25 31/85/25 32/91/25 6/92/25
f 22/93/24 48/94/24 47/88/24 21/87/24
f 15/95/24 41/96/24 40/97/24 14/98/24
f 6/92/25 32/91/25 33/99/25 7/100/25
f 23/101/24 49/102/24 48/94/24 22/93/24
f 16/103/24 42/104/24 41/96/24 15/95/24
f 7/100/25 33/99/25 34/105/25 8/106/25
f 24/58/24 50/57/24 49/102/24 23/101/24
f 13/107/26 39/108/26 52/109/26 26/110/26
f 17/66/24 43/65/24 42/104/24 16/103/24
f 8/106/25 34/105/25 35/68/25 9/67/25
f 54/111/27 66/112/27 67/113/27 55/114/27
f 61/115/28 73/116/28 74/117/28 62/118/28
f 58/119/29 70/120/29 71/121/29 59/122/29
f 55/114/30 67/113/30 68/123/30 56/124/30
f 62/118/31 74/117/31 75/125/31 63/126/31
f 1/127/32 14/128/32 65/129/32 53/130/32
f 59/122/33 71/121/33 72/131/33 60/132/33
f 56/124/34 68/123/34 69/133/34 57/134/34
f 63/126/35 75/125/35 76/135/35 64/136/35
f 53/130/36 65/129/36 66/137/36 54/138/36
f 60/132/37 72/131/37 73/116/37 61/115/37
f 57/134/38 69/133/38 70/120/38 58/119/38
f 78/139/39 79/140/39 91/141/39 90/142/39
f 85/143/40 86/144/40 98/145/40 97/146/40
f 82/147/41 83/148/41 95/149/41 94/150/41
f 79/140/42 80/151/42 92/152/42 91/141/42
f 86/144/43 87/153/43 99/154/43 98/145/43
f 27/155/44 77/156/44 89/157/44 40/158/44
f 83/148/45 84/159/45 96/160/45 95/149/45
f 80/151/46 81/161/46 93/162/46 92/152/46
f 87/153/47 88/163/47 100/164/47 99/154/47
f 77/156/48 78/139/48 90/142/48 89/157/48
f 84/159/41 85/143/41 97/146/41 96/160/41
f 81/161/49 82/147/49 94/150/49 93/162/49
f 75/165/24 74/166/24 98/167/24 99/168/24
f 1/169/25 53/170/25 77/171/25 27/172/25
f 68/173/24 67/174/24 91/175/24 92/176/24
f 60/177/25 61/178/25 85/179/25 84/180/25
f 76/181/24 75/165/24 99/168/24 100/182/24
f 53/170/25 54/183/25 78/184/25 77/171/25
f 69/185/24 68/173/24 92/176/24 93/186/24
f 61/178/25 62/187/25 86/188/25 85/179/25
f 54/183/25 55/189/25 79/190/25 78/184/25
f 70/191/24 69/185/24 93/186/24 94/192/24
f 62/187/25 63/193/25 87/194/25 86/188/25
f 55/189/25 56/195/25 80/196/25 79/190/25
f 71/197/24 70/191/24 94/192/24 95/198/24
f 63/193/25 64/199/25 88/200/25 87/194/25
f 56/195/25 57/201/25 81/202/25 80/196/25
f 72/203/24 71/197/24 95/198/24 96/204/24
f 65/205/24 14/206/24 40/207/24 89/208/24
f 57/201/25 58/209/25 82/210/25 81/202/25
f 73/211/24 72/203/24 96/204/24 97/212/24
f 66/213/24 65/205/24 89/208/24 90/214/24
f 58/209/25 59/215/25 83/216/25 82/210/25
f 74/166/24 73/211/24 97/212/24 98/167/24
f 64/217/50 76/137/50 100/218/50 88/219/50
f 67/174/24 66/213/24 90/214/24 91/175/24
f 59/215/25 60/177/25 84/180/25 83/216/25
f 101/220/51 102/221/51 104/222/51 103/223/51
f 119/224/24 117/225/24 108/226/24 107/227/24
f 107/228/52 108/229/52 106/230/52 105/222/52
f 116/231/25 114/232/25 102/233/25 101/234/25
f 119/235/53 107/236/53 105/237/53 118/238/53
f 115/239/54 104/240/54 102/241/54 114/242/54
f 123/243/55 110/244/55 112/245/55 122/246/55
f 135/247/56 109/248/56 111/249/56 134/250/56
f 124/251/25 122/252/25 112/253/25 111/254/25
f 135/255/24 133/256/24 110/257/24 109/258/24
f 103/259/24 104/260/24 115/261/24 113/262/24
f 103/263/57 113/264/57 116/265/57 101/266/57
f 129/267/58 115/239/58 114/242/58 132/242/58
f 130/229/25 132/229/25 114/229/25 116/229/25
f 105/268/25 106/269/25 120/270/25 118/271/25
f 108/272/59 117/273/59 120/274/59 106/275/59
f 127/276/60 119/235/60 118/238/60 126/277/60
f 127/278/24 125/279/24 117/225/24 119/224/24
f 109/258/24 110/257/24 123/280/24 121/281/24
f 109/248/61 121/282/61 124/283/61 111/249/61
f 126/284/25 128/285/25 122/252/25 124/251/25
f 125/286/62 123/243/62 122/246/62 128/287/62
f 117/273/63 125/286/63 128/287/63 120/274/63
f 118/271/25 120/270/25 128/285/25 126/284/25
f 121/281/24 123/280/24 125/279/24 127/278/24
f 121/282/64 127/276/64 126/277/64 124/283/64
f 134/288/25 136/289/25 132/290/25 130/291/25
f 133/292/65 129/267/65 132/242/65 136/293/65
f 113/262/24 115/261/24 129/294/24 131/295/24
f 113/264/66 131/296/66 130/265/66 116/265/66
f 110/244/67 133/292/67 136/293/67 112/245/67
f 111/254/25 112/253/25 136/289/25 134/288/25
f 131/295/24 129/294/24 133/256/24 135/255/24
f 131/296/68 135/247/68 134/250/68 130/265/68
